<svg width="32" height="32" clip-rule="evenodd" fill-rule="evenodd" image-rendering="optimizeQuality" shape-rendering="geometricPrecision" text-rendering="geometricPrecision" version="1.0" viewBox="0 0 236.25 236.25" xmlns="http://www.w3.org/2000/svg">
 <circle transform="rotate(-60)" cx="-55.141" cy="168.23" r="104.38" fill="#00afef" style="stroke-width:.030466"/>
 <path d="m31.084 74.262a104.38 104.38 0 0 0-3.3536 5.419 104.38 104.38 0 0 0 38.204 142.58 104.38 104.38 0 0 0 122.68-13.415c-15.913-10.077-27.953-2.8869-35.42 2.9362-1.9073-17.839-19.83-31.806-38.79-27.88 0.36463-5.0486 1.2342-6.4229 1.5708-12.874 12.117-24.935 12.734-26.505 18.483-39.099 10.939-23.813-22.803-16.072-24.795-13.07-2.5243 3.7865-4.5157 6.8999-8.779 12.986-14.894-6.8718-24.85 3.9826-26.674 8.1056-6.0303-18.456-20.419-28.132-37.164-26.337 8.6333-18.814-4.3332-37.679-5.9622-39.353z" style="fill:#86d7de;stroke-width:.030466"/>
 <path d="m124.41 113.05c-2.8068 0.0815-6.1374 2.1625-9.213 7.1568-8.4986 13.884-16.352 24.85-27.095 42.016 4.4877-14.08-21.008-23.168-29.871-9.6765-9.6766-10.041-26.758-6.423-32.844 0.47682 2.4922-17.113-8.0551-27.5-11.401-28.274a104.38 104.38 0 0 0 51.945 97.51 104.38 104.38 0 0 0 83.134 9.291c-5e-3 -0.0161-9e-3 -0.0321-0.0142-0.0481-6.5352-14.894-14.725-19.1-32.115-16.801 6.984-15.483-2.6365-30.741-16.043-34.219 13.183-25.131 23.364-41.932 28.441-52.394 3.8838-8.062 0.43522-15.194-4.9232-15.038z" style="fill:#1c8094;stroke-width:.030466"/>
 <path d="m105.7 147.59c10.49-4.4877 48.776-24.794 29.507-51.075-32.396-3.5341-30.825 39.744-29.507 51.075z" fill="#f7e16a" style="stroke-width:.028048"/>
 <path d="m105.7 147.59c10.49-4.4877 48.776-24.794 29.507-51.075z" fill="#f5d200" style="stroke-width:.028048"/>
 <path d="m118.12 126.08c5.7498-2.0756 27.122-13.94 17.081-29.563-18.568-0.89754-18.175 23.56-17.081 29.563z" fill="#fcf3cc" style="stroke-width:.028048"/>
 <path d="m118.12 126.08c5.7498-2.0756 27.122-13.94 17.081-29.563z" fill="#fae799" style="stroke-width:.028048"/>
 <path d="m190.91 3.1037e-6c3.5621 7.9656 4.7962 16.24 4.3755 24.71-4.5718 0.25243-9.7607-0.58901-16.296-4.0109-6.2547-3.9548-9.5924-8.0217-11.64-12.117 7.1242-4.6279 14.894-7.6852 23.56-8.5827z" fill="#f95839" style="stroke-width:.028048"/>
 <path d="m151.81 96.71c13.155-11.556 41.175-39.127 43.474-71.999-11.107 0.6451-22.943-6.1706-27.936-16.128-27.319 18.428-37.192 56.461-40.614 73.626 6.9559 9.1998 13.631 13.042 25.075 14.501z" fill="#fefefe" style="stroke-width:.028048"/>
 <path d="m190.91 3.1037e-6c3.5621 7.9656 4.7962 16.24 4.3755 24.71-1.2902 0.08414-2.6085 0.0561-4.0109-0.08414 1.2902-6.7596 0.92559-15.118-0.36462-24.626z" fill="#e55135" style="stroke-width:.028048"/>
 <path d="m151.19 97.243c12.874-11.191 41.764-39.127 44.092-72.532-1.2902 0.08414-2.6085 0.0561-4.0109-0.08414-5.6938 38.033-29.282 59.574-40.081 72.616z" fill="#ebebeb" style="stroke-width:.028048"/>
 <path d="m147.32 100.55c1.1219-0.95363 2.6646-2.2438 4.4877-3.8426-11.444-1.4585-18.119-5.3011-25.075-14.501-0.47682 2.3841-0.8134 4.3755-1.0939 5.834 6.0303 7.4327 12.229 11.023 21.681 12.509z" fill="#2c3b50" style="stroke-width:.028048"/>
 <g fill="#f95839">
  <path d="m136.3 58.705c-4.5718 11.948-6.5071 18.54-7.9096 25.412l-17.698 12.089 7.7132-22.663c0.84144-2.0195 1.767-4.7962 4.5999-6.7876z" style="stroke-width:.028048"/>
  <path d="m167.24 76.571c-8.0498 9.9571-12.79 14.922-18.035 19.578l-1.6268 21.345 15.791-18.007c1.3183-1.7109 3.2536-3.8987 3.5621-7.3766z" style="stroke-width:.028048"/>
  <path d="m128 109.02c2.1597-6.8157 13.183-38.482 25.86-44.821 0.84144 14.136-21.345 39.997-25.86 44.821z" style="stroke-width:.028048"/>
  <circle transform="rotate(-60)" cx="52.514" cy="165.34" r="11.029" style="stroke-width:.032438"/>
 </g>
 <circle transform="rotate(-60)" cx="52.513" cy="165.34" r="8.9604" fill="#2c3b50" style="stroke-width:.026354"/>
 <g fill="#fefefe" fill-rule="nonzero">
  <path d="m48.171 153.93h4.7962c3.1975 0 5.3011 0.14024 6.2828 0.36463 1.0097 0.25243 1.5707 0.89753 1.6829 1.9073 0.14024 1.0097-0.42072 2.6085-1.7109 4.8243-1.178 2.0195-2.2158 3.3938-3.1133 4.067-0.89754 0.70121-2.1317 1.1219-3.7023 1.2622 1.15 0.33657 1.7951 0.78534 1.9353 1.3463 0.14024 0.53292 0.14024 1.0658-0.02805 1.5146-0.14024 0.47681-0.84144 1.767-2.0475 3.8426l-3.9828 6.8718h-6.2828l4.9926-8.6388c0.78534-1.4024 1.178-2.2438 1.15-2.5804 0-0.33657-0.47682-0.50486-1.4305-0.50486l-6.7596 11.724h-6.8157zm4.2353 4.4316-3.3377 5.806c0.7573 0 1.3463-0.11219 1.767-0.30853 0.42072-0.22438 0.95363-0.89754 1.6268-2.0475l0.81339-1.4304c0.47682-0.81339 0.6451-1.3744 0.50486-1.6268-0.14024-0.25244-0.58901-0.39268-1.3744-0.39268z" style="stroke-width:.028048"/>
  <path d="m72.629 169.19c-1.5146 2.6085-2.6365 4.4596-3.3938 5.5255-0.7573 1.0939-1.7109 2.0756-2.8889 3.0011-1.15 0.89753-2.4402 1.5707-3.8145 2.0475-1.4024 0.50487-2.8329 0.72925-4.2914 0.72925-1.4024 0-2.5243-0.22438-3.3658-0.67315-0.84144-0.47682-1.3463-1.15-1.4865-2.0475-0.16829-0.92558 0-1.9073 0.50486-2.9731 0.47682-1.0658 1.5146-2.945 3.0572-5.6096l2.5524-4.4596c1.5146-2.6085 2.6365-4.4596 3.3938-5.5535 0.7573-1.0939 1.7109-2.0756 2.8889-2.9731s2.4402-1.5987 3.8426-2.0756c1.3744-0.47682 2.8048-0.7012 4.2633-0.7012 1.4024 0 2.5243 0.22438 3.3658 0.67315 0.84144 0.44877 1.3463 1.1219 1.5146 2.0475 0.14024 0.89753-0.02805 1.9073-0.50486 2.9731-0.50486 1.0658-1.5146 2.945-3.0572 5.6096zm-1.8792-8.5547c0.7012-1.2061 1.0939-1.9634 1.15-2.2999 0.0561-0.33657-0.11219-0.50486-0.50486-0.50486-0.36462 0-0.7012 0.11219-1.0378 0.39267-0.33658 0.28048-0.89754 1.0658-1.6829 2.4121l-7.012 12.145c-0.86949 1.4866-1.3463 2.4402-1.4305 2.7768-0.08414 0.36462 0.11219 0.53291 0.53291 0.53291 0.44877 0 0.86949-0.19634 1.2341-0.61706 0.36462-0.39267 0.98168-1.3744 1.8512-2.889z" style="stroke-width:.028048"/>
  <path d="m93.272 165.29h-6.7876l2.6085-4.5157c0.7573-1.3182 1.15-2.1316 1.2061-2.4682 0.0561-0.33658-0.16829-0.47682-0.67315-0.47682-0.56096 0-1.0097 0.19634-1.4024 0.58901-0.36462 0.39267-0.95363 1.2341-1.7109 2.5524l-6.9559 12.061c-0.72925 1.2622-1.1219 2.1036-1.2061 2.4963-0.08414 0.36462 0.14024 0.56096 0.67315 0.56096 0.50486 0 0.92558-0.19634 1.3183-0.58901 0.36462-0.36462 0.98168-1.2902 1.7951-2.7207l1.9073-3.2536h6.7876l-0.58901 1.0097c-1.5426 2.6926-2.8609 4.5999-3.8706 5.7218-1.0378 1.1219-2.4682 2.1316-4.2633 2.9731-1.7951 0.84144-3.6462 1.2622-5.5535 1.2622-1.9914 0-3.4219-0.36462-4.2914-1.0658-0.89754-0.72925-1.178-1.7109-0.84144-2.9731 0.30853-1.2902 1.2061-3.1975 2.6646-5.7498l4.4035-7.573c1.0658-1.8792 1.9353-3.2816 2.6085-4.2072 0.67315-0.95363 1.5707-1.8512 2.7207-2.7207s2.4402-1.5426 3.8426-2.0475c1.4305-0.50486 2.8889-0.72924 4.3474-0.72924 1.9914 0 3.4219 0.36462 4.2914 1.15 0.84144 0.75729 1.15 1.7109 0.89754 2.8609-0.25243 1.15-1.0939 2.945-2.4963 5.3572z" style="stroke-width:.028048"/>
  <polygon transform="matrix(.028048 0 0 .028048 12.887 3.1037e-6)" points="3384 5907 3241 6415 2992 6415 3123 6018 2894 6415 2651 6415 3187 5488 3429 5488 3221 5848 3538 5488 3764 5488"/>
  <polygon transform="matrix(.028048 0 0 .028048 12.887 3.1037e-6)" points="3703 6415 3283 6415 3819 5488 4222 5488 4115 5673 3954 5673 3852 5850 4003 5850 3901 6026 3750 6026 3632 6230 3810 6230"/>
  <polygon transform="matrix(.028048 0 0 .028048 12.887 3.1037e-6)" points="4530 5673 4102 6415 3859 6415 4288 5673 4144 5673 4251 5488 4780 5488 4673 5673"/>
  <polygon transform="matrix(.028048 0 0 .028048 12.887 3.1037e-6)" points="5076 5850 5224 5850 5123 6026 4974 6026 4749 6415 4507 6415 5043 5488 5452 5488 5345 5673 5178 5673"/>
  <polygon transform="matrix(.028048 0 0 .028048 12.887 3.1037e-6)" points="4975 6415 5511 5488 5754 5488 5325 6230 5471 6230 5364 6415"/>
  <path d="m195.45 153.93-10.041 17.39c-1.15 1.9634-2.0195 3.3658-2.6085 4.1511-0.58901 0.8134-1.4304 1.6268-2.5524 2.4682s-2.328 1.4585-3.6182 1.9073c-1.2902 0.42072-2.6365 0.6451-4.0389 0.6451-1.5707 0-2.8048-0.25243-3.6743-0.75729-0.89754-0.53292-1.4024-1.2061-1.5146-2.0195-0.14024-0.8134 0.0281-1.6829 0.44877-2.6085 0.42072-0.92559 1.4866-2.8328 3.1694-5.7779l8.8912-15.398h6.8157l-11.275 19.521c-0.6451 1.1219-1.0097 1.8512-1.0658 2.1597s0.0841 0.47682 0.44877 0.47682c0.42072 0 0.8134-0.16829 1.1219-0.50486 0.33657-0.36463 0.86949-1.178 1.5987-2.4682l11.079-19.185z" style="stroke-width:.028048"/>
  <path d="m211.83 153.93-9.0315 11.5-4.7682 14.501h-6.2828c0.7573-2.5804 1.9073-5.7498 3.4219-9.4802-1.15 1.6548-2.4121 3.3938-3.7865 5.245l-3.0572 4.2352h-6.6193l10.855-14.501 4.1792-11.5h6.5632c-0.25243 0.72925-0.72924 1.9353-1.3744 3.5902-0.44877 1.2902-0.89754 2.4682-1.3463 3.5341l5.5816-7.1242z" style="stroke-width:.028048"/>
  <path d="m165.89 183.01-0.33658 0.58901h0.30853l-0.33658 0.58901h-0.30853l-1.178 1.9914c-0.14024 0.22438-0.19633 0.36462-0.19633 0.39267 0.0281 0.0281 0.11219 0.0561 0.30853 0.0561l-0.33658 0.58901h-0.47682c-0.25243 0-0.42072 0-0.53291-0.0281-0.0841-0.0281-0.16829-0.0841-0.19634-0.14024-0.0561-0.0841-0.0561-0.16829 0-0.28048 0.0281-0.0842 0.14024-0.33658 0.36463-0.7012l1.0939-1.8792h-0.25243l0.36462-0.58901h0.22439l0.33658-0.58901z" style="stroke-width:.028048"/>
  <path d="m167.77 182.68-0.58901 1.0378c0.14024-0.11219 0.30852-0.16829 0.44876-0.22438 0.14025-0.0281 0.25244-0.0561 0.39268-0.0561 0.19633 0 0.33657 0.0561 0.42072 0.14024 0.0841 0.11219 0.11219 0.22438 0.0561 0.36462-0.0561 0.1122-0.16828 0.36463-0.36462 0.72925l-1.4866 2.5524h-1.15l1.5146-2.6085c0.14024-0.22439 0.19633-0.36463 0.22438-0.42072 0-0.0561-0.028-0.1122-0.11219-0.1122-0.0561 0-0.11219 0.0561-0.19634 0.1122-0.0561 0.0561-0.14024 0.19633-0.25243 0.36462l-1.5146 2.6646h-1.15l2.6365-4.5438z" style="stroke-width:.028048"/>
  <path d="m170.66 185.43h-1.4865l-0.44877 0.81339c-0.11219 0.16829-0.16829 0.28048-0.16829 0.30853 0 0.0561 0.0281 0.0841 0.11219 0.0841 0.0841 0 0.16829-0.0281 0.22439-0.0841 0.0561-0.0841 0.14024-0.19633 0.25243-0.39267l0.28048-0.47682h1.0939l-0.16828 0.25244c-0.1122 0.25243-0.25244 0.42072-0.33658 0.53291-0.11219 0.14024-0.25243 0.28048-0.44877 0.42072-0.16829 0.14024-0.36462 0.22438-0.58901 0.30853-0.19634 0.0561-0.42072 0.11219-0.67315 0.11219s-0.42072-0.0561-0.58901-0.11219c-0.14024-0.0841-0.22439-0.16829-0.25243-0.28048-0.028-0.14024-0.028-0.25244 0.028-0.42072 0.0281-0.14024 0.14024-0.33658 0.28049-0.61706l0.6451-1.0939c0.19634-0.30853 0.36462-0.58901 0.58901-0.7573 0.19634-0.19634 0.42072-0.33658 0.67315-0.44877 0.25243-0.0841 0.50487-0.14024 0.78535-0.14024 0.30853 0 0.53291 0.0561 0.67315 0.16829 0.14024 0.14024 0.19634 0.28048 0.16829 0.47681-0.028 0.22439-0.14024 0.50487-0.36463 0.84145zm-0.78534-0.61706 0.14024-0.25243c0.11219-0.19634 0.19634-0.33658 0.19634-0.39267 0-0.0561-0.0281-0.0841-0.0841-0.0841-0.0841 0-0.14024 0.0281-0.19634 0.0841-0.028 0.0561-0.11219 0.16829-0.25243 0.39267l-0.14024 0.25243z" style="stroke-width:.028048"/>
  <path d="m173.35 184.95h-1.0658l0.14024-0.25243c0.16829-0.28048 0.30853-0.50486 0.47682-0.67315 0.16829-0.14024 0.36462-0.28048 0.6451-0.42072 0.28048-0.11219 0.56096-0.16829 0.89754-0.16829 0.36463 0 0.61706 0.0561 0.72925 0.19634 0.14024 0.14024 0.14024 0.30852 0.0841 0.50486-0.0841 0.19634-0.30852 0.61706-0.6451 1.2061l-1.0939 1.8792h-1.0939l0.16829-0.33658c-0.14024 0.14024-0.28048 0.25243-0.42072 0.30853-0.16829 0.0561-0.30853 0.11219-0.44877 0.11219-0.22438 0-0.36462-0.0561-0.47682-0.16829-0.0841-0.11219-0.028-0.36462 0.19634-0.72925l0.16829-0.30853c0.16829-0.28048 0.30853-0.47681 0.44877-0.58901 0.16828-0.0841 0.44877-0.22438 0.86949-0.33657 0.47681-0.16829 0.72925-0.25243 0.78534-0.30853 0.0561-0.0561 0.11219-0.14024 0.19634-0.30853 0.11219-0.19634 0.19633-0.30853 0.19633-0.36462 0-0.0561-0.028-0.1122-0.11219-0.1122-0.0561 0-0.14024 0.0281-0.16829 0.0841-0.0561 0.0561-0.14024 0.16829-0.25243 0.39267zm0.0561 0.50487c-0.25243 0.14024-0.42072 0.25243-0.50486 0.33658-0.0841 0.0841-0.16829 0.22438-0.28048 0.39267-0.11219 0.19633-0.16829 0.30853-0.16829 0.36462 0 0.0561 0.028 0.0841 0.11219 0.0841 0.0561 0 0.11219-0.0281 0.16829-0.0561 0.0561-0.0561 0.11219-0.16829 0.22438-0.36462z" style="stroke-width:.028048"/>
  <path d="m177.56 183.01-0.33657 0.58901h0.30853l-0.33658 0.58901h-0.33658l-1.15 1.9914c-0.14024 0.22438-0.19633 0.36462-0.19633 0.39267 0.028 0.0281 0.11219 0.0561 0.30853 0.0561l-0.33658 0.58901h-0.47682c-0.25243 0-0.42072 0-0.53291-0.0281-0.0841-0.0281-0.16829-0.0841-0.19634-0.14024-0.0561-0.0841-0.0561-0.16829-0.0281-0.28048 0.0561-0.0842 0.16829-0.33658 0.39268-0.7012l1.0939-1.8792h-0.25243l0.33658-0.58901h0.25243l0.33657-0.58901z" style="stroke-width:.028048"/>
  <path d="m179.63 184.81-0.50486 0.92559c-0.19634 0.30853-0.36463 0.56096-0.47682 0.72925-0.14024 0.14024-0.28048 0.30853-0.47682 0.42072-0.19633 0.14024-0.39267 0.25243-0.61706 0.30853-0.19633 0.0561-0.42072 0.11219-0.6451 0.11219-0.25243 0-0.44877-0.0281-0.58901-0.0841-0.14024-0.0561-0.22438-0.14024-0.25243-0.25244-0.0561-0.11219-0.0281-0.25243 0.028-0.42072 0.028-0.14024 0.14024-0.39267 0.33657-0.7012l0.56096-0.95363c0.19634-0.33658 0.39268-0.61706 0.56096-0.8134 0.19634-0.19633 0.42073-0.36462 0.70121-0.47681 0.25243-0.11219 0.53291-0.16829 0.84144-0.16829 0.25243 0 0.44877 0.0281 0.58901 0.11219 0.14024 0.0842 0.22438 0.16829 0.25243 0.30853 0.0281 0.11219 0.0281 0.22438 0 0.36462-0.0561 0.14024-0.14024 0.33658-0.30853 0.58901zm-0.95363-0.28048c0.11219-0.19633 0.16828-0.30853 0.16828-0.36462 0-0.0561-0.028-0.0841-0.0841-0.0841-0.0841 0-0.14024 0.0281-0.19634 0.0841-0.028 0.0561-0.11219 0.16829-0.22438 0.36462l-0.98168 1.6829c-0.11219 0.16828-0.16829 0.28048-0.16829 0.33657 0 0.0561 0.0281 0.0841 0.0841 0.0841 0.0841 0 0.14024-0.0281 0.19634-0.0841 0.028-0.0281 0.11219-0.14024 0.19634-0.30853z" style="stroke-width:.028048"/>
  <path d="m183.39 183.49-2.1597 3.7304h-1.15l0.19634-0.30853c-0.16829 0.14024-0.30853 0.22438-0.47682 0.28048-0.14024 0.0561-0.28048 0.11219-0.44877 0.11219s-0.28048-0.0281-0.36462-0.11219c-0.0842-0.0561-0.1122-0.14024-0.1122-0.22439 0-0.11219 0.028-0.19633 0.0841-0.30853 0.0561-0.11219 0.16829-0.33657 0.33657-0.6451l1.4585-2.5243h1.15l-1.4865 2.5524c-0.16829 0.28048-0.25244 0.44877-0.25244 0.50486-0.028 0.0561 0 0.0841 0.0842 0.0841 0.0841 0 0.16829-0.0281 0.19633-0.0841 0.0561-0.0561 0.16829-0.22438 0.33658-0.53291l1.4585-2.5243z" style="stroke-width:.028048"/>
  <path d="m184.91 183.49-0.19633 0.36462c0.16829-0.14024 0.33657-0.25243 0.47681-0.30853 0.16829-0.0841 0.33658-0.11219 0.47682-0.11219 0.30853 0 0.47682 0.14024 0.47682 0.42072 0.19633-0.14024 0.36462-0.25243 0.50486-0.30853 0.16829-0.0841 0.33658-0.11219 0.47682-0.11219 0.19634 0 0.30853 0.0561 0.39267 0.14024 0.0842 0.0841 0.0842 0.19634 0.0561 0.33658-0.0561 0.14024-0.16829 0.36462-0.33658 0.67315l-1.5426 2.6365h-1.0939l1.4024-2.4121c0.19633-0.33657 0.28048-0.53291 0.30853-0.58901 0.028-0.0841 0-0.14024-0.0841-0.14024s-0.16829 0.0561-0.22438 0.1122c-0.0561 0.0841-0.19634 0.28048-0.36463 0.61705l-1.4024 2.4121h-1.1219l1.3744-2.356c0.22439-0.36463 0.33658-0.58901 0.36463-0.67315 0-0.0561-0.028-0.1122-0.0841-0.1122s-0.11219 0.0281-0.16828 0.0841c-0.0561 0.0281-0.1122 0.0841-0.14025 0.14024-0.028 0.0281-0.11219 0.16829-0.22438 0.33658l-1.4866 2.5804h-1.0939l2.1597-3.7304z" style="stroke-width:.028048"/>
  <path d="m189.45 184.95h-1.0658l0.14024-0.25243c0.16829-0.28048 0.33658-0.50486 0.47682-0.67315 0.16829-0.14024 0.36462-0.28048 0.6451-0.42072 0.28048-0.11219 0.56097-0.16829 0.89754-0.16829 0.36463 0 0.61706 0.0561 0.7573 0.19634 0.11219 0.14024 0.14024 0.30852 0.0561 0.50486-0.0841 0.19634-0.28049 0.61706-0.64511 1.2061l-1.0939 1.8792h-1.0939l0.19634-0.33658c-0.16829 0.14024-0.30853 0.25243-0.44877 0.30853s-0.30853 0.11219-0.44877 0.11219c-0.19634 0-0.36462-0.0561-0.44877-0.16829-0.11219-0.11219-0.0561-0.36462 0.16829-0.72925l0.16829-0.30853c0.16829-0.28048 0.30853-0.47681 0.47682-0.58901 0.14024-0.0841 0.42072-0.22438 0.84144-0.33657 0.47681-0.16829 0.72925-0.25243 0.78534-0.30853 0.0561-0.0561 0.11219-0.14024 0.22439-0.30853 0.11219-0.19634 0.16829-0.30853 0.16829-0.36462 0-0.0561-0.028-0.1122-0.0841-0.1122-0.0841 0-0.14024 0.0281-0.19634 0.0841-0.0561 0.0561-0.14024 0.16829-0.25243 0.39267zm0.0561 0.50487c-0.25243 0.14024-0.42072 0.25243-0.50486 0.33658-0.0842 0.0841-0.16829 0.22438-0.28048 0.39267-0.11219 0.19633-0.16829 0.30853-0.16829 0.36462 0 0.0561 0.028 0.0841 0.11219 0.0841 0.0561 0 0.11219-0.0281 0.16829-0.0561 0.0561-0.0561 0.14024-0.16829 0.22438-0.36462z" style="stroke-width:.028048"/>
  <path d="m193.32 183.49-0.19634 0.33657c0.16829-0.14024 0.33658-0.22438 0.50487-0.30853 0.16829-0.0561 0.30853-0.0841 0.44877-0.0841 0.19633 0 0.30852 0.0561 0.39267 0.14024 0.0561 0.0841 0.0841 0.19634 0.0561 0.33658-0.0561 0.11219-0.16828 0.33657-0.33657 0.61705l-0.89754 1.5707c-0.19634 0.33658-0.36462 0.58901-0.47682 0.72925-0.14024 0.14024-0.28048 0.25244-0.44877 0.33658-0.16828 0.0841-0.36462 0.14024-0.53291 0.14024-0.14024 0-0.25243-0.0561-0.33657-0.11219-0.0841-0.0561-0.14024-0.16829-0.14024-0.28048l-0.50487 0.84144h-1.15l2.4682-4.2633zm-0.28048 1.0939c0.11219-0.22439 0.19633-0.36463 0.19633-0.42072 0.0281-0.0561 0-0.0841-0.0841-0.0841s-0.14024 0.0281-0.19634 0.0841c-0.0561 0.0561-0.14024 0.19633-0.28048 0.42072l-0.89753 1.5426c-0.1122 0.22439-0.19634 0.36463-0.19634 0.42072 0 0.0561 0.028 0.0841 0.11219 0.0841 0.0561 0 0.11219-0.0281 0.16829-0.0841 0.0561-0.0561 0.14024-0.16829 0.25243-0.36462z" style="stroke-width:.028048"/>
  <path d="m196.32 183.49-0.19634 0.33657c0.16829-0.14024 0.33658-0.22438 0.50487-0.30853 0.16829-0.0561 0.30853-0.0841 0.44877-0.0841 0.16829 0 0.30853 0.0561 0.39267 0.14024 0.0561 0.0841 0.0841 0.19634 0.0281 0.33658-0.0281 0.11219-0.14024 0.33657-0.30853 0.61705l-0.89754 1.5707c-0.19633 0.33658-0.36462 0.58901-0.47681 0.72925-0.14025 0.14024-0.28049 0.25244-0.44877 0.33658-0.16829 0.0841-0.36463 0.14024-0.53292 0.14024-0.14024 0-0.25243-0.0561-0.33657-0.11219-0.0841-0.0561-0.14024-0.16829-0.16829-0.28048l-0.47682 0.84144h-1.15l2.4682-4.2633zm-0.30853 1.0939c0.14024-0.22439 0.22439-0.36463 0.22439-0.42072 0.028-0.0561-0.0281-0.0841-0.0842-0.0841-0.0841 0-0.14024 0.0281-0.19633 0.0841-0.0561 0.0561-0.14024 0.19633-0.28049 0.42072l-0.89753 1.5426c-0.1122 0.22439-0.19634 0.36463-0.19634 0.42072-0.0281 0.0561 0.0281 0.0841 0.0841 0.0841 0.0841 0 0.14025-0.0281 0.19634-0.0841 0.0561-0.0561 0.11219-0.16829 0.25243-0.36462z" style="stroke-width:.028048"/>
 </g>
</svg>
