<svg width="32" height="32" version="1.1" viewBox="0 0 8.4667 8.4667" fill="currentColor" xmlns="http://www.w3.org/2000/svg">
 <path id="svg-rocket" d="m8.4667 4.2347c-0.2381 0.32914-0.53223 0.57425-0.88238 0.76333-0.11205-0.18208-0.18908-0.42018-0.20309-0.76333 0.014007-0.34315 0.091039-0.57425 0.20309-0.76333 0.35015 0.18908 0.64428 0.43419 0.88238 0.76333zm-5.4904-0.15407c0.014007-0.14006 0.049021-0.27312 0.10505-0.42718 0.063027-0.021009 0.14006-0.049021 0.2311-0.077033-7e-3 0.021009-0.014007 0.035015-0.021008 0.056024-7e-3 7e-3 -7e-3 7e-3 -7e-3 0.014006v7e-3c-7e-3 7e-3 -7e-3 0.014006-7e-3 0.014006l-7e-3 7e-3v0.014006l-7e-3 7e-3v0.014006 7e-3c-7e-3 7e-3 -7e-3 0.021009-0.014007 0.035015 0 7e-3 -7e-3 7e-3 -7e-3 0.014006v7e-3c0 7e-3 0 7e-3 -7e-3 0.01401v7e-3 0.01401l-7e-3 7e-3v0.01401l-7e-3 7e-3c0 0.01401-7e-3 0.02801-7e-3 0.04202v7e-3c-7e-3 7e-3 -7e-3 7e-3 -7e-3 0.01401v7e-3 0.01401l-7e-3 7e-3v0.01401 7e-3s-7e-3 7e-3 -7e-3 0.01401c0 0.01401 0 0.02101-7e-3 0.03501v0.01401 7e-3 0.01401 7e-3c-7e-3 0-7e-3 7e-3 -7e-3 0.01401zm0.19608-0.50422c-0.042018 0.014006-0.084036 0.028012-0.11205 0.042018-0.07003 0.17508-0.11205 0.33614-0.12605 0.49722 7e-3 -7e-3 0.24511-0.03502 0.24511-0.03502 0.58125-0.05602 1.2675-0.07003 1.6037 0.15407-0.33615 0.2241-1.0224 0.21709-1.6037 0.15407v7e-3 -7e-3s-0.2381-0.02801-0.24511-0.02801c0.014007 0.16107 0.056024 0.32214 0.12605 0.49722 0.028012 0.01401 0.063027 0.02101 0.098042 0.03502l-0.81935 0.39917 1.1625 0.2311c0.10505 0.01401 0.25211 0.04202 0.40618-0.02801l0.4552-0.25211c0.9244 0.19608 2.1359 0.28712 3.1514-0.20309-0.30113-0.4622-0.30113-1.1415 0-1.6037-1.0084-0.49722-2.22-0.40618-3.1374-0.21009l-0.4692-0.25211c-0.15407-0.077033-0.30113-0.042018-0.40618-0.028012l-1.1625 0.2311zm7e-3 0.84036v7e-3 7e-3c0 7e-3 7e-3 7e-3 7e-3 7e-3v0.02801 7e-3s0 7e-3 7e-3 7e-3v0.01401 7e-3 7e-3c0 7e-3 0 7e-3 7e-3 0.01401v7e-3 0.01401 7e-3c7e-3 7e-3 7e-3 7e-3 7e-3 0.01401v7e-3c0 7e-3 7e-3 0.01401 7e-3 0.02101v7e-3 0.01401c7e-3 0 7e-3 7e-3 7e-3 7e-3v0.01401l7e-3 7e-3v0.01401 7e-3c7e-3 7e-3 7e-3 7e-3 7e-3 0.01401v7e-3c7e-3 7e-3 7e-3 0.01401 7e-3 0.02101s7e-3 7e-3 7e-3 0.01401v7e-3l7e-3 0.01401v7e-3l7e-3 0.01401v7e-3c0 7e-3 7e-3 7e-3 7e-3 0.01401v7e-3l7e-3 0.01401v0.01401c0.014007 0.02801 0.02101 0.05602 0.035015 0.08404-0.090994-0.03496-0.16803-0.06297-0.23105-0.08398-0.056025-0.14706-0.091039-0.28712-0.10505-0.42018l0.20309 0.02801zm-7e-3 -0.18208m0 0.08404v7e-3 0.01401 7e-3 -0.02801zm0 0.04202m3.1654-0.6723c0.30113 0 0.54624 0.24511 0.54624 0.54624 0 0.30113-0.24511 0.54624-0.54624 0.54624-0.30813 0-0.55324-0.24511-0.55324-0.54624 0-0.30113 0.24511-0.54624 0.55324-0.54624zm0 0.10505c0.24511 0 0.44119 0.19608 0.44119 0.44119 0 0.24511-0.19608 0.44819-0.44119 0.44819-0.25211 0-0.44819-0.20309-0.44819-0.44819 0-0.24511 0.19608-0.44119 0.44819-0.44119zm-6.3377 0.44119c0.29413 0.21709 1.1415 0.76333 1.8908 0.74232 0.38517-0.014006 0.74932-0.18208 0.98042-0.62327-0.30113-0.042018-0.55324-0.091039-0.65828-0.11905 0.11205-0.021009 0.35715-0.07003 0.65828-0.11205-0.6933-1.3026-2.4301-0.21709-2.8712 0.11205z" />
</svg>
